<svg width="22" height="19" viewBox="0 0 22 19" fill="none" xmlns="http://www.w3.org/2000/svg">
<path fill-rule="evenodd" clip-rule="evenodd" d="M12.1362 17.9372L19.4409 10.6325C20.657 9.41637 21.2651 7.94832 21.2651 6.22839C21.2651 4.50847 20.657 3.04043 19.4409 1.82426C18.2246 0.608085 16.7566 0 15.0366 0C13.3167 0 11.8487 0.608085 10.6325 1.82426C9.41637 0.608085 7.94832 0 6.22839 0C4.50847 0 3.04043 0.608085 1.82426 1.82426C0.608086 3.04043 0 4.50847 0 6.22839C0 7.94832 0.608086 9.41637 1.82426 10.6325L9.12887 17.9372C9.95933 18.7676 11.3058 18.7676 12.1362 17.9372Z" fill="url(#paint0_radial_7620_20991)"/>
<defs>
<radialGradient id="paint0_radial_7620_20991" cx="0" cy="0" r="1" gradientUnits="userSpaceOnUse" gradientTransform="translate(5.36942 6.42044) rotate(59.8757) scale(12.4465 13.6144)">
<stop stop-color="#FFAA00"/>
<stop offset="1" stop-color="#F05206"/>
</radialGradient>
</defs>
</svg>
