<svg width="151" height="25" viewBox="0 0 151 25" fill="none" xmlns="http://www.w3.org/2000/svg">
<g clip-path="url(#clip0_7643_22535)">
<path d="M19.1741 2.74917C17.4778 1.24712 15.0407 0.496094 11.863 0.496094H0.5V6.56631H0.566667H10.9444C12.6333 6.56631 13.4704 7.30355 13.4704 8.78493C13.4704 10.2663 12.6259 11.0036 10.9444 11.0036H0.5V24.6391H8.63333V16.9704H11.8556C13.9593 16.9704 15.7444 16.6052 17.2259 15.8818C18.7074 15.1514 19.8185 14.173 20.5815 12.9328C21.337 11.6926 21.7148 10.3145 21.7148 8.79182C21.7148 6.27003 20.863 4.25811 19.1667 2.75606L19.1741 2.74917Z" fill="#181818"/>
<path d="M35.1646 0.503906V24.6401H27.0312V0.503906H35.1646Z" fill="#181818"/>
<path d="M40.582 14.1468C40.1227 12.0935 40.2857 10.0954 41.0783 8.15926C41.8709 6.22313 43.2783 4.48682 45.3079 2.95032C47.0487 1.62741 48.8709 0.752362 50.782 0.318284C52.6857 -0.115795 54.5598 -0.102015 56.3894 0.352734C58.2264 0.807484 59.9301 1.66875 61.5153 2.92965L54.8709 7.97323C54.0264 7.58738 53.1746 7.4358 52.3153 7.51159C51.4561 7.59427 50.6635 7.90433 49.945 8.44865C48.8857 9.2548 48.3746 10.2608 48.4042 11.4665C48.4338 12.6723 49.0042 13.8987 50.1005 15.1528C51.1968 16.4068 52.3746 17.1647 53.6412 17.4403C54.9079 17.7159 56.0635 17.4472 57.1301 16.641C57.8487 16.0967 58.3375 15.4421 58.5968 14.6704C58.8561 13.9056 58.8635 13.0995 58.6264 12.252L65.2709 7.20842C66.2857 8.9034 66.8487 10.6328 66.9598 12.3967C67.0709 14.1606 66.7079 15.8693 65.8635 17.5161C65.0264 19.1628 63.7301 20.6511 61.9894 21.974C59.9598 23.5105 57.8487 24.4476 55.6561 24.7783C53.4561 25.109 51.3227 24.861 49.2487 24.0273C47.1746 23.1935 45.3301 21.85 43.7079 20.0034C42.0857 18.1569 41.0412 16.2001 40.582 14.1468Z" fill="#181818"/>
<path d="M71.9297 24.6381H80.063V14.172V10.658V0.501953H71.9297V24.6381Z" fill="#181818"/>
<path d="M89.915 12.0567L98.8558 0.501953H89.6558L82.2188 10.658V14.172L89.7669 24.6381H99.441L89.915 12.0567Z" fill="#7782FF"/>
<path d="M130.472 23.2741C128.435 22.2062 126.813 20.7317 125.613 18.8438C124.413 16.9559 123.82 14.8337 123.82 12.4704C123.82 10.1071 124.42 7.98491 125.613 6.09701C126.813 4.20912 128.428 2.74152 130.472 1.68043C132.509 0.626244 134.754 0.0957031 137.198 0.0957031C139.643 0.0957031 141.88 0.626244 143.902 1.68043C145.931 2.73463 147.539 4.20912 148.724 6.09701C149.909 7.98491 150.502 10.1071 150.502 12.4704C150.502 14.8337 149.909 16.9559 148.724 18.8438C147.539 20.7317 145.924 22.2062 143.887 23.2741C141.85 24.3421 139.62 24.8795 137.198 24.8795C134.776 24.8795 132.509 24.349 130.472 23.2741ZM140.939 16.4805C141.82 15.5916 142.257 14.3859 142.257 12.8769C142.257 11.368 141.82 10.1346 140.939 9.24581C140.057 8.35698 138.813 7.90912 137.198 7.90912C135.583 7.90912 134.302 8.35698 133.42 9.24581C132.539 10.1346 132.102 11.3473 132.102 12.8769C132.102 14.4065 132.539 15.5847 133.42 16.4805C134.302 17.3762 135.561 17.8171 137.198 17.8171C138.835 17.8171 140.057 17.3693 140.939 16.4805Z" fill="#181818"/>
<path d="M118.294 10.1426V15.5927H101.242V10.1426H118.294Z" fill="#181818"/>
</g>
<defs>
<clipPath id="clip0_7643_22535">
<rect width="150" height="24.9216" fill="white" transform="translate(0.5)"/>
</clipPath>
</defs>
</svg>
