<svg width="101" height="18" viewBox="0 0 101 18" fill="none" xmlns="http://www.w3.org/2000/svg">
<g clip-path="url(#clip0_6701_22102)">
<path d="M13.2091 1.97204C12.0783 0.904743 10.4536 0.371094 8.33508 0.371094H0.759766V4.68435H0.80421H7.72273C8.84866 4.68435 9.40668 5.20821 9.40668 6.26082C9.40668 7.31343 8.84372 7.83729 7.72273 7.83729H0.759766V17.5262H6.18199V12.0771H8.33014C9.73261 12.0771 10.9227 11.8176 11.9104 11.3036C12.898 10.7846 13.6388 10.0894 14.1474 9.20813C14.6511 8.32687 14.903 7.3477 14.903 6.26571C14.903 4.47383 14.3351 3.04423 13.2042 1.97694L13.2091 1.97204Z" fill="#181818"/>
<path d="M23.8714 0.375V17.5252H18.4492V0.375H23.8714Z" fill="#181818"/>
<path d="M27.4817 10.0703C27.1756 8.61133 27.2842 7.19153 27.8126 5.81579C28.341 4.44006 29.2793 3.2063 30.6324 2.11452C31.7929 1.17452 33.0077 0.552743 34.2817 0.244303C35.5509 -0.0641361 36.8003 -0.0543443 38.02 0.268783C39.2447 0.59191 40.3805 1.20389 41.4373 2.09983L37.0077 5.68361C36.4447 5.40944 35.8768 5.30173 35.304 5.35558C34.7311 5.41433 34.2027 5.63465 33.7237 6.02142C33.0175 6.59424 32.6768 7.30903 32.6966 8.16581C32.7163 9.02258 33.0966 9.89405 33.8274 10.7851C34.5583 11.6761 35.3435 12.2147 36.1879 12.4105C37.0324 12.6064 37.8027 12.4154 38.5138 11.8426C38.9928 11.4558 39.3188 10.9907 39.4916 10.4424C39.6645 9.89894 39.6694 9.32613 39.5114 8.72394L43.941 5.14017C44.6175 6.34455 44.9928 7.57341 45.0669 8.82675C45.141 10.0801 44.899 11.2943 44.3361 12.4644C43.778 13.6345 42.9138 14.692 41.7533 15.632C40.4003 16.7238 38.9929 17.3896 37.5311 17.6246C36.0645 17.8596 34.6422 17.6834 33.2595 17.091C31.8768 16.4986 30.6472 15.5439 29.5657 14.2318C28.4842 12.9197 27.7879 11.5293 27.4817 10.0703Z" fill="#181818"/>
<path d="M48.3789 17.5252H53.8011V10.0884V7.5915V0.375H48.3789V17.5252Z" fill="#181818"/>
<path d="M60.3691 8.58536L66.3296 0.375H60.1963L55.2383 7.5915V10.0884L60.2704 17.5252H66.7198L60.3691 8.58536Z" fill="#7782FF"/>
<path d="M87.4072 16.5556C86.0492 15.7968 84.9677 14.749 84.1677 13.4076C83.3677 12.0661 82.9727 10.5582 82.9727 8.8789C82.9727 7.19962 83.3727 5.6917 84.1677 4.35023C84.9677 3.00877 86.0443 1.96595 87.4072 1.21199C88.7653 0.462919 90.2615 0.0859375 91.8912 0.0859375C93.5208 0.0859375 95.0122 0.462919 96.3603 1.21199C97.7134 1.96105 98.785 3.00877 99.5751 4.35023C100.365 5.6917 100.76 7.19962 100.76 8.8789C100.76 10.5582 100.365 12.0661 99.5751 13.4076C98.785 14.749 97.7085 15.7968 96.3504 16.5556C94.9924 17.3145 93.506 17.6964 91.8912 17.6964C90.2764 17.6964 88.7653 17.3194 87.4072 16.5556ZM94.385 11.7283C94.9727 11.0967 95.264 10.24 95.264 9.16776C95.264 8.09557 94.9727 7.21921 94.385 6.58764C93.7973 5.95607 92.9677 5.63784 91.8912 5.63784C90.8146 5.63784 89.9603 5.95607 89.3727 6.58764C88.785 7.21921 88.4936 8.08088 88.4936 9.16776C88.4936 10.2546 88.785 11.0918 89.3727 11.7283C89.9603 12.3648 90.7998 12.6781 91.8912 12.6781C92.9825 12.6781 93.7973 12.3599 94.385 11.7283Z" fill="#181818"/>
<path d="M79.2878 7.22656V11.0992H67.9199V7.22656H79.2878Z" fill="#181818"/>
</g>
<defs>
<clipPath id="clip0_6701_22102">
<rect width="100" height="17.7083" fill="white" transform="translate(0.759766 0.0195312)"/>
</clipPath>
</defs>
</svg>
