<svg width="42" height="35" viewBox="0 0 42 35" fill="none" xmlns="http://www.w3.org/2000/svg">
<path d="M32.5352 5.60171C34.2838 5.60171 35.6992 7.15851 35.6992 9.08631V30.8143C35.6992 32.7365 34.2852 34.2996 32.5352 34.2996H3.86042C2.11602 34.2996 0.699219 32.7372 0.699219 30.8143V8.59001C0.699219 6.66221 2.11322 5.59961 3.86042 5.59961" fill="#FFA000"/>
<path d="M11.3805 1.40039C11.9699 1.40039 12.448 1.92539 12.448 2.57639L19.448 10.0727C19.448 10.7209 18.9692 11.2473 18.3805 11.2473H1.76392C1.17592 11.2473 0.699219 10.7209 0.699219 10.0727V2.57639C0.699219 1.92539 1.17662 1.40039 1.76392 1.40039H11.3805Z" fill="#FFA000"/>
<path d="M38.0862 11.8613C39.8334 11.8613 41.2488 13.4181 41.2488 15.3459L36.3719 30.8159C35.8399 32.2012 34.2579 34.3012 32.5079 34.3012H3.86042C2.11602 34.3012 0.699219 32.7388 0.699219 30.8159L5.57752 15.3459C6.29922 14.0005 7.69152 11.8613 9.43872 11.8613" fill="url(#paint0_linear_6939_39210)"/>
<defs>
<linearGradient id="paint0_linear_6939_39210" x1="20.974" y1="34.3012" x2="20.974" y2="11.8613" gradientUnits="userSpaceOnUse">
<stop stop-color="#FFCA28"/>
<stop offset="1" stop-color="#FFD553"/>
</linearGradient>
</defs>
</svg>
