<svg width="38" height="29" viewBox="0 0 38 29" fill="none" xmlns="http://www.w3.org/2000/svg">
<g id="&#235;&#170;&#168;&#236;&#157;&#140;zip">
<g id="Mask group">
<mask id="mask0_6841_42589" style="mask-type:alpha" maskUnits="userSpaceOnUse" x="0" y="0" width="38" height="29">
<path id="Rectangle 39590564" d="M11.6565 0.158203H2.44051C1.38012 0.158203 0.520508 1.01782 0.520508 2.0782V28.0942H37.3845V4.7182C37.3845 3.65782 36.5249 2.7982 35.4645 2.7982H13.5765V2.0782C13.5765 1.01782 12.7169 0.158203 11.6565 0.158203Z" fill="#FFB85B"/>
</mask>
<g mask="url(#mask0_6841_42589)">
<path id="Rectangle 39590568" d="M11.6565 0.158203H3.44051C2.38012 0.158203 1.52051 1.01782 1.52051 2.0782V28.0942H36.3845V4.7182C36.3845 3.65782 35.5249 2.7982 34.4645 2.7982H13.5765V2.0782C13.5765 1.01782 12.7169 0.158203 11.6565 0.158203Z" fill="#CACACA"/>
<path id="Rectangle 39590565" d="M4.20947 7.64801C4.20947 6.85272 4.85418 6.20801 5.64947 6.20801H32.2575C33.0528 6.20801 33.6975 6.85272 33.6975 7.64801V23.2C33.6975 23.9953 33.0528 24.64 32.2575 24.64H5.64947C4.85418 24.64 4.20947 23.9953 4.20947 23.2V7.64801Z" fill="white"/>
<path id="Rectangle 39590569" d="M19.2002 10.1754C19.2002 9.67833 19.6031 9.27539 20.1002 9.27539H30.3002C30.7973 9.27539 31.2002 9.67833 31.2002 10.1754C31.2002 10.6724 30.7973 11.0754 30.3002 11.0754H20.1002C19.6031 11.0754 19.2002 10.6724 19.2002 10.1754Z" fill="#CACACA"/>
<path id="Rectangle 39590566" d="M1.52051 28.0901H37.3845V18.8181C37.3845 15.6369 34.8057 13.0581 31.6245 13.0581H1.52051V28.0901Z" fill="#E6E6E6"/>
</g>
</g>
</g>
</svg>
