<svg width="42" height="30" viewBox="0 0 42 30" fill="none" xmlns="http://www.w3.org/2000/svg">
<path d="M41.0225 12.2145C41.7331 9.56276 40.1592 6.83705 37.5072 6.12647L24.4891 2.63838C21.8371 1.9278 19.1112 3.50144 18.4007 6.1532L17.2428 10.4743L16.0849 14.7955C15.3744 17.4472 16.9482 20.1729 19.6002 20.8835L37.4202 25.6582L41.0225 12.2145Z" fill="#EFF2FA"/>
<rect width="12.7307" height="2.21416" rx="1.10708" transform="matrix(-0.964933 -0.258546 -0.258537 0.964846 35.4438 11.5693)" fill="#C6D1EB"/>
<path d="M32.9911 17.2851C33.2174 16.6868 32.8889 16.022 32.2761 15.8383L28.2687 14.6366C27.7138 14.4702 27.1247 14.7613 26.9199 15.3031C26.6936 15.9014 27.0222 16.5661 27.6349 16.7499L31.6424 17.9516C32.1972 18.118 32.7863 17.8269 32.9911 17.2851Z" fill="#C6D1EB"/>
<path d="M37.1217 26.6725L37.4207 25.5565L26.7388 22.6943L31.4373 28.0095C33.1875 29.9894 36.4377 29.225 37.1217 26.6725Z" fill="#EFF2FA"/>
<path d="M1.01455 10.0153C0.250653 7.34446 1.82409 4.56592 4.50759 3.84689L17.6132 0.335354C20.1984 -0.35732 22.8679 1.12078 23.6526 3.6793L24.6908 7.06458L25.8487 11.3857C26.5592 14.0375 24.9854 16.7632 22.3334 17.4738L4.51343 22.2485L1.01455 10.0153Z" fill="#7782FF"/>
<path d="M4.80997 23.2585L4.51092 22.1424L15.1929 19.2803L10.4943 24.5954C8.7441 26.5753 5.49392 25.8109 4.80997 23.2585Z" fill="#7782FF"/>
<rect width="12.7307" height="2.21416" rx="1.10708" transform="matrix(0.964933 -0.258546 0.258537 0.964846 6.7749 8.83496)" fill="#FFE74A"/>
<path d="M8.34823 14.7156C8.19016 14.1257 8.54029 13.5193 9.13027 13.3612L15.2723 11.7155C15.8623 11.5575 16.4687 11.9075 16.6267 12.4975C16.7848 13.0874 16.4347 13.6938 15.8447 13.8519L9.70272 15.4976C9.11273 15.6556 8.50631 15.3056 8.34823 14.7156Z" fill="#FFE74A"/>
</svg>
