<svg width="53" height="40" viewBox="0 0 53 40" fill="none" xmlns="http://www.w3.org/2000/svg">
<path d="M40 4H22L18 0H8C5.8 0 4 1.8 4 4V12H44V8C44 5.8 42.2 4 40 4Z" fill="#FFA000"/>
<path d="M40 4H8C5.8 4 4 5.8 4 8V28C4 30.2 5.8 32 8 32H40C42.2 32 44 30.2 44 28V8C44 5.8 42.2 4 40 4Z" fill="#FFCA28"/>
<path d="M40 4H22L18 0H8C5.8 0 4 1.8 4 4V12H44V8C44 5.8 42.2 4 40 4Z" fill="#FFA000"/>
<path d="M40 4H8C5.8 4 4 5.8 4 8V28C4 30.2 5.8 32 8 32H40C42.2 32 44 30.2 44 28V8C44 5.8 42.2 4 40 4Z" fill="#FFCA28"/>
<rect x="33" y="20" width="20" height="20" rx="10" fill="white"/>
<path d="M47.1992 25.5501L41.9222 31.8826L41.1823 32.7702L40.3654 31.9533L37.1992 28.7871L38.6916 27.2947L41.0399 29.6441L45.5781 24.1992L47.1992 25.5501Z" fill="#8C8C8C"/>
<rect x="33" y="20" width="20" height="20" rx="10" fill="white"/>
<path d="M47.1992 25.5501L41.9222 31.8826L41.1823 32.7702L40.3654 31.9533L37.1992 28.7871L38.6916 27.2947L41.0399 29.6441L45.5781 24.1992L47.1992 25.5501Z" fill="#8C8C8C"/>
</svg>
