<svg width="80" height="30" viewBox="0 0 80 30" fill="none" xmlns="http://www.w3.org/2000/svg">
<path fill-rule="evenodd" clip-rule="evenodd" d="M41.6098 0.76545C41.082 -0.25515 39.6223 -0.25515 39.0945 0.76545L37.3886 4.06371L3.53983 4.06371C1.58484 4.06371 2.38759e-06 5.64855 2.21668e-06 7.60354L0 26.0106C0 27.9656 1.58483 29.5504 3.53982 29.5504L76.4602 29.5504C78.4152 29.5504 80 27.9656 80 26.0106V7.60354C80 5.64855 78.4152 4.06372 76.4602 4.06372L43.3157 4.06371L41.6098 0.76545Z" fill="#FF587A"/>
<path d="M17.2402 18.916H15.9395V16.666H17.2402V18.916ZM16.9648 13.1797C16.9609 13.7812 16.8438 14.3398 16.6133 14.8555C16.3828 15.3672 16.0449 15.8105 15.5996 16.1855C15.1543 16.5566 14.6152 16.8281 13.9824 17L13.3672 16.0156C13.9102 15.8633 14.373 15.6445 14.7559 15.3594C15.1387 15.0742 15.4277 14.7461 15.623 14.375C15.8184 14 15.916 13.6016 15.916 13.1797V12.9219H16.9648V13.1797ZM17.2461 13.1797C17.2461 13.582 17.3457 13.9629 17.5449 14.3223C17.7441 14.6816 18.0371 15 18.4238 15.2773C18.8105 15.5547 19.2754 15.7637 19.8184 15.9043L19.2207 16.9121C18.584 16.7402 18.0371 16.4707 17.5801 16.1035C17.127 15.7363 16.7812 15.3027 16.543 14.8027C16.3047 14.3027 16.1855 13.7617 16.1855 13.1797V12.9219H17.2461V13.1797ZM19.5254 13.3379H13.6777V12.2891H19.5254V13.3379ZM17.2402 12.7578H15.9395V11.082H17.2402V12.7578ZM21.8867 21.5996H20.5977V10.9883H21.8867V21.5996ZM13.291 18.4707C14.5918 18.4707 15.7832 18.4473 16.8652 18.4004C17.9473 18.3535 18.9785 18.2559 19.959 18.1074L20.0586 19.0684C19.3242 19.2051 18.5645 19.3086 17.7793 19.3789C16.9941 19.4453 16.25 19.4883 15.5469 19.5078C14.8438 19.5273 14.0879 19.5352 13.2793 19.5312L13.1152 18.4707H13.291ZM31.4023 12.6465H24.6348V11.6035H31.4023V12.6465ZM33.125 16.7949H23.4453V15.7402H33.125V16.7949ZM31.9355 12.4766C31.9355 13.1602 31.916 13.7734 31.877 14.3164C31.8418 14.8594 31.75 15.4746 31.6016 16.1621L30.3066 16.0449C30.4043 15.5879 30.4766 15.1582 30.5234 14.7559C30.5742 14.3535 30.6055 13.9961 30.6172 13.6836C30.6289 13.3672 30.6348 12.9941 30.6348 12.5645V12.4766V11.6035H31.9355V12.4766ZM32.2461 21.3652H24.6934V20.3047H32.2461V21.3652ZM25.9766 20.4277H24.6934V17.8086H25.9766V20.4277ZM46.3555 20.3516H36.6758V19.2793H46.3555V20.3516ZM42.1309 19.7363H40.8477V17.1875H42.1309V19.7363ZM45.2012 15.1133H39.1191V17.0352H37.8184V14.0879H43.918V12.7637H37.8008V11.709H45.2012V15.1133ZM45.4531 17.5449H37.8184V16.4844H45.4531V17.5449ZM54.8633 13.0742H48.0605V12.0137H54.8633V13.0742ZM56.6914 20.123H47.0469V19.0625H56.6914V20.123ZM55.4668 13.2852C55.4668 13.8984 55.459 14.4297 55.4434 14.8789C55.4316 15.3281 55.3984 15.8438 55.3438 16.4258C55.2891 17.0078 55.2031 17.6387 55.0859 18.3184L53.7559 18.207C53.8848 17.5742 53.9785 16.9727 54.0371 16.4023C54.0957 15.832 54.1328 15.3223 54.1484 14.873C54.1641 14.4238 54.1719 13.8906 54.1719 13.2734V13.2148V12.0137H55.4668V13.2148V13.2852ZM66.2305 18.6523H64.9238V11H66.2305V18.6523ZM66.5293 21.3828H59.2227V20.3164H66.5293V21.3828ZM60.5352 20.7324H59.2227V17.8789H60.5352V20.7324ZM60.459 11.6914C60.9902 11.6914 61.4727 11.8066 61.9062 12.0371C62.3438 12.2637 62.6875 12.5781 62.9375 12.9805C63.1875 13.3789 63.3125 13.8301 63.3125 14.334C63.3125 14.8496 63.1875 15.3105 62.9375 15.7168C62.6875 16.1191 62.3457 16.4336 61.9121 16.6602C61.4785 16.8867 60.9941 17 60.459 17C59.9238 17 59.4395 16.8867 59.0059 16.6602C58.5762 16.4336 58.2344 16.1191 57.9805 15.7168C57.7305 15.3105 57.6055 14.8496 57.6055 14.334C57.6055 13.8301 57.7305 13.3789 57.9805 12.9805C58.2344 12.5781 58.5762 12.2637 59.0059 12.0371C59.4395 11.8066 59.9238 11.6914 60.459 11.6914ZM60.459 12.834C60.1582 12.834 59.8867 12.8965 59.6445 13.0215C59.4062 13.1426 59.2188 13.3184 59.082 13.5488C58.9453 13.7754 58.877 14.0371 58.877 14.334C58.877 14.6426 58.9453 14.9121 59.082 15.1426C59.2188 15.373 59.4062 15.5508 59.6445 15.6758C59.8867 15.8008 60.1582 15.8613 60.459 15.8574C60.7559 15.8613 61.0234 15.8008 61.2617 15.6758C61.5 15.5508 61.6855 15.373 61.8184 15.1426C61.9551 14.9121 62.0234 14.6426 62.0234 14.334C62.0234 14.0371 61.9551 13.7754 61.8184 13.5488C61.6855 13.3184 61.5 13.1426 61.2617 13.0215C61.0234 12.8965 60.7559 12.834 60.459 12.834Z" fill="white"/>
</svg>
