<svg width="14" height="17" viewBox="0 0 14 17" fill="none" xmlns="http://www.w3.org/2000/svg">
<path d="M11.6667 16.3641C11.0185 16.3641 10.4676 16.1373 10.0139 15.6836C9.56019 15.2299 9.33333 14.679 9.33333 14.0308C9.33333 13.9401 9.33982 13.846 9.35278 13.7485C9.36574 13.651 9.38519 13.5636 9.41111 13.4864L3.92778 10.2975C3.70741 10.4919 3.46111 10.6444 3.18889 10.7548C2.91667 10.8653 2.63148 10.9202 2.33333 10.9197C1.68519 10.9197 1.13426 10.6929 0.680556 10.2391C0.226852 9.78545 0 9.23452 0 8.58637C0 7.93822 0.226852 7.3873 0.680556 6.93359C1.13426 6.47989 1.68519 6.25304 2.33333 6.25304C2.63148 6.25304 2.91667 6.30826 3.18889 6.4187C3.46111 6.52915 3.70741 6.68133 3.92778 6.87526L9.41111 3.68637C9.38519 3.60859 9.36574 3.52122 9.35278 3.42426C9.33982 3.3273 9.33333 3.23319 9.33333 3.14193C9.33333 2.49378 9.56019 1.94285 10.0139 1.48915C10.4676 1.03545 11.0185 0.808594 11.6667 0.808594C12.3148 0.808594 12.8657 1.03545 13.3194 1.48915C13.7731 1.94285 14 2.49378 14 3.14193C14 3.79008 13.7731 4.341 13.3194 4.7947C12.8657 5.24841 12.3148 5.47526 11.6667 5.47526C11.3685 5.47526 11.0833 5.4203 10.8111 5.31037C10.5389 5.20045 10.2926 5.048 10.0722 4.85304L4.58889 8.04193C4.61481 8.11971 4.63426 8.20733 4.64722 8.30482C4.66019 8.4023 4.66667 8.49615 4.66667 8.58637C4.66667 8.67659 4.66019 8.7707 4.64722 8.8687C4.63426 8.96671 4.61481 9.05408 4.58889 9.13082L10.0722 12.3197C10.2926 12.1253 10.5389 11.9731 10.8111 11.8631C11.0833 11.7532 11.3685 11.698 11.6667 11.6975C12.3148 11.6975 12.8657 11.9243 13.3194 12.378C13.7731 12.8317 14 13.3827 14 14.0308C14 14.679 13.7731 15.2299 13.3194 15.6836C12.8657 16.1373 12.3148 16.3641 11.6667 16.3641Z" fill="#8C8C8C"/>
</svg>
