<svg width="46" height="46" viewBox="0 0 46 46" fill="none" xmlns="http://www.w3.org/2000/svg">
<circle cx="22.9991" cy="22.9991" r="22.5616" fill="#FEE500"/>
<path d="M23.0669 11.3262C16.0475 11.3262 10.3867 15.8548 10.3867 21.3525C10.3867 24.9211 12.7416 28.0459 16.274 29.8301L15.0784 34.2954C15.0559 34.3624 15.0524 34.4342 15.0684 34.503C15.0844 34.5718 15.1192 34.6347 15.169 34.6848C15.2415 34.7488 15.3349 34.7842 15.4316 34.7845C15.5118 34.778 15.5879 34.7463 15.649 34.6939L20.7935 31.225C21.5529 31.3298 22.3184 31.3842 23.085 31.388C30.0954 31.388 35.7652 26.8594 35.7652 21.3525C35.7652 15.8457 30.0773 11.3262 23.0669 11.3262Z" fill="#392020"/>
<path d="M14.8232 19.7672H13.4374C13.2656 19.7721 13.096 19.7282 12.9483 19.6403C12.8827 19.5993 12.8264 19.545 12.7827 19.4811C12.7391 19.4172 12.7091 19.345 12.6947 19.269C12.6903 19.2208 12.6903 19.1723 12.6947 19.1241C12.6904 19.0339 12.7079 18.944 12.7458 18.862C12.7836 18.78 12.8406 18.7084 12.9121 18.6531C13.07 18.5388 13.2606 18.4784 13.4555 18.481H17.6309C17.804 18.4749 17.9748 18.5224 18.12 18.6169C18.1871 18.6561 18.2447 18.7099 18.2886 18.7741C18.3324 18.8383 18.3615 18.9114 18.3736 18.9882C18.378 19.0334 18.378 19.079 18.3736 19.1241C18.3779 19.2156 18.3604 19.3068 18.3226 19.3903C18.2849 19.4737 18.2278 19.5469 18.1563 19.6041C18.0022 19.7183 17.8134 19.7759 17.6219 19.7672H16.2814V24.5313C16.2868 24.6328 16.2711 24.7343 16.2353 24.8294C16.1994 24.9245 16.1442 25.0112 16.0731 25.0838C16.0049 25.1532 15.9229 25.2077 15.8325 25.2436C15.742 25.2794 15.645 25.2959 15.5477 25.2921C15.3776 25.2969 15.2112 25.2426 15.0768 25.1382C14.9488 25.0362 14.862 24.8914 14.8322 24.7305C14.8233 24.6644 14.8233 24.5974 14.8322 24.5313L14.8232 19.7672Z" fill="#FEE500"/>
<path d="M18.7736 18.8351C18.8135 18.6861 18.907 18.557 19.0363 18.4728C19.174 18.3947 19.331 18.3571 19.4892 18.3641H19.8333C20.0012 18.3581 20.1674 18.3989 20.3134 18.4819C20.4681 18.5859 20.578 18.7443 20.6213 18.9257L22.4328 24.0431C22.4797 24.1766 22.5191 24.3127 22.5505 24.4507C22.5536 24.508 22.5536 24.5654 22.5505 24.6227C22.5536 24.711 22.5373 24.7989 22.5029 24.8802C22.4685 24.9616 22.4167 25.0345 22.3513 25.0937C22.2878 25.1588 22.2116 25.21 22.1275 25.2443C22.0433 25.2786 21.953 25.2951 21.8622 25.293C21.7225 25.3069 21.5822 25.2734 21.4639 25.1978C21.3456 25.1222 21.2561 25.009 21.21 24.8764L20.8296 23.7623H18.4476L18.0672 24.8764C18.0222 25.0116 17.9317 25.127 17.8111 25.203C17.6905 25.2789 17.5474 25.3107 17.406 25.293C17.2528 25.297 17.1028 25.2491 16.9803 25.1571C16.8609 25.0622 16.7804 24.9269 16.7539 24.7768C16.749 24.7255 16.749 24.6739 16.7539 24.6227C16.7383 24.5328 16.7383 24.441 16.7539 24.3511C16.7539 24.2515 16.8173 24.1427 16.8535 24.0431L18.7736 18.8351ZM19.6794 20.0217L18.8189 22.7389H20.5307L19.6794 20.0217Z" fill="#FEE500"/>
<path d="M22.7586 19.1249C22.7494 18.9217 22.821 18.723 22.9579 18.5724C23.0274 18.5023 23.1109 18.4475 23.203 18.4116C23.295 18.3757 23.3936 18.3595 23.4922 18.364C23.6619 18.3621 23.8275 18.4162 23.9632 18.518C24.089 18.6243 24.1726 18.7721 24.1987 18.9346C24.2076 18.9977 24.2076 19.0618 24.1987 19.1249V23.8891H26.6895C26.8621 23.8868 27.0318 23.9339 27.1786 24.0248C27.2445 24.0655 27.3012 24.1196 27.3449 24.1836C27.3885 24.2476 27.4183 24.32 27.4322 24.3962C27.4322 24.3962 27.4322 24.4868 27.4322 24.5321C27.4365 24.6223 27.419 24.7121 27.3811 24.7941C27.3433 24.8761 27.2862 24.9479 27.2148 25.0031C27.0569 25.1175 26.8663 25.1778 26.6714 25.1751H23.61C23.415 25.1877 23.2212 25.1369 23.0575 25.0303C22.911 24.9208 22.8135 24.7582 22.7858 24.5774C22.7791 24.4779 22.7791 24.378 22.7858 24.2785L22.7586 19.1249Z" fill="#FEE500"/>
<path d="M27.5962 19.1243C27.5908 18.9216 27.6619 18.7244 27.7955 18.5718C27.9312 18.4485 28.1053 18.3756 28.2885 18.3657C28.4716 18.3558 28.6526 18.4094 28.8008 18.5174C28.9294 18.6227 29.0161 18.7704 29.0454 18.934C29.0498 18.9973 29.0498 19.061 29.0454 19.1243V21.3433L31.3369 18.6985C31.4252 18.6083 31.5189 18.5237 31.6177 18.445C31.7107 18.3896 31.8173 18.3613 31.9256 18.3634C32.0839 18.3625 32.2387 18.4099 32.3694 18.4993C32.431 18.5407 32.4836 18.5942 32.524 18.6565C32.5645 18.7187 32.592 18.7885 32.6049 18.8616C32.6086 18.8795 32.6086 18.8981 32.6049 18.916C32.6005 18.9369 32.6005 18.9584 32.6049 18.9793C32.6046 19.0746 32.5796 19.1683 32.5324 19.2511C32.4844 19.3388 32.4267 19.4207 32.3603 19.4956L30.8568 21.144L32.6683 23.9518V24.0423C32.7623 24.1721 32.8357 24.3158 32.8857 24.4681V24.5133C32.8961 24.6183 32.881 24.7242 32.8416 24.822C32.8021 24.9198 32.7396 25.0066 32.6592 25.0749C32.5081 25.1891 32.3233 25.2497 32.1339 25.247C32.0081 25.2522 31.8831 25.224 31.7716 25.1654C31.651 25.0845 31.5516 24.9758 31.4818 24.8484L29.7971 22.1313L28.991 22.9736V24.4861C28.9965 24.6888 28.9253 24.8861 28.7918 25.0386C28.7202 25.1086 28.6351 25.1632 28.5416 25.199C28.4481 25.2349 28.3483 25.2512 28.2483 25.247C28.0812 25.2505 27.918 25.1961 27.7864 25.093C27.6585 24.991 27.5716 24.8463 27.5419 24.6855C27.5329 24.6194 27.5329 24.5522 27.5419 24.4861L27.5962 19.1243Z" fill="#FEE500"/>
</svg>
