<svg width="42" height="30" viewBox="0 0 42 30" fill="none" xmlns="http://www.w3.org/2000/svg">
<path d="M41.0225 12.7004C41.7331 10.0486 40.1592 7.32289 37.5072 6.61231L24.4891 3.12422C21.8371 2.41364 19.1112 3.98728 18.4007 6.63904L17.2428 10.9602L16.0849 15.2813C15.3744 17.9331 16.9482 20.6588 19.6002 21.3694L37.4202 26.1441L41.0225 12.7004Z" fill="#F8F8F8"/>
<rect width="12.7307" height="2.21416" rx="1.10708" transform="matrix(-0.964933 -0.258546 -0.258537 0.964846 35.4438 12.0552)" fill="#E6E6E6"/>
<path d="M32.9911 17.7709C33.2174 17.1726 32.8889 16.5079 32.2761 16.3241L28.2687 15.1224C27.7138 14.9561 27.1247 15.2471 26.9199 15.7889C26.6936 16.3873 27.0222 17.052 27.6349 17.2357L31.6424 18.4374C32.1972 18.6038 32.7863 18.3127 32.9911 17.7709Z" fill="#E6E6E6"/>
<path d="M37.1217 27.1584L37.4207 26.0423L26.7388 23.1802L31.4373 28.4953C33.1875 30.4752 36.4377 29.7108 37.1217 27.1584Z" fill="#F8F8F8"/>
<path d="M1.01455 10.5011C0.250653 7.8303 1.82409 5.05176 4.50759 4.33273L17.6132 0.821194C20.1984 0.128519 22.8679 1.60662 23.6526 4.16514L24.6908 7.55042L25.8487 11.8716C26.5592 14.5233 24.9854 17.249 22.3334 17.9596L4.51343 22.7343L1.01455 10.5011Z" fill="#AFAFAF"/>
<path d="M4.80997 23.7443L4.51092 22.6283L15.1929 19.7661L10.4943 25.0812C8.7441 27.0612 5.49392 26.2968 4.80997 23.7443Z" fill="#AFAFAF"/>
<rect width="12.7307" height="2.21416" rx="1.10708" transform="matrix(0.964933 -0.258546 0.258537 0.964846 6.7749 9.3208)" fill="white"/>
<path d="M8.34823 15.2015C8.19016 14.6115 8.54029 14.0052 9.13027 13.8471L15.2723 12.2014C15.8623 12.0433 16.4687 12.3934 16.6267 12.9833C16.7848 13.5732 16.4347 14.1796 15.8447 14.3377L9.70272 15.9834C9.11273 16.1415 8.50631 15.7914 8.34823 15.2015Z" fill="white"/>
</svg>
