<svg width="24" height="24" viewBox="0 0 24 24" fill="none" xmlns="http://www.w3.org/2000/svg">
<path d="M12.5859 10.1191V14.6185H18.8385C18.564 16.0654 17.74 17.2907 16.5043 18.1145L20.2749 21.0401C22.4717 19.0123 23.7392 16.0339 23.7392 12.4957C23.7392 11.6719 23.6652 10.8796 23.5279 10.1193L12.5859 10.1191Z" fill="#4285F4"/>
<path d="M6.07541 14.4414L5.22501 15.0924L2.21484 17.4371C4.12653 21.2287 8.04467 23.8481 12.5862 23.8481C15.723 23.8481 18.3529 22.813 20.2752 21.0387L16.5046 18.113C15.4695 18.8101 14.1493 19.2326 12.5862 19.2326C9.56555 19.2326 6.99911 17.1942 6.08016 14.4481L6.07541 14.4414Z" fill="#34A853"/>
<path d="M2.21495 7.02344C1.42286 8.58652 0.96875 10.3504 0.96875 12.2303C0.96875 14.1103 1.42286 15.8742 2.21495 17.4373C2.21495 17.4477 6.08065 14.4377 6.08065 14.4377C5.84829 13.7406 5.71094 13.0013 5.71094 12.2302C5.71094 11.4591 5.84829 10.7198 6.08065 10.0228L2.21495 7.02344Z" fill="#FBBC05"/>
<path d="M12.5865 5.23935C14.2975 5.23935 15.8184 5.8308 17.033 6.97149L20.3599 3.64456C18.3426 1.76459 15.7234 0.613281 12.5865 0.613281C8.04491 0.613281 4.12653 3.22205 2.21484 7.02431L6.08042 10.0239C6.99924 7.27777 9.56579 5.23935 12.5865 5.23935Z" fill="#EA4335"/>
</svg>
