<svg width="14" height="16" viewBox="0 0 14 16" fill="none" xmlns="http://www.w3.org/2000/svg">
<path d="M12.1783 15.6361C11.9428 15.6355 11.7099 15.5882 11.4928 15.497C11.2758 15.4058 11.079 15.2725 10.9138 15.1047L7.00013 11.214L3.08646 15.1073C2.83512 15.3623 2.51277 15.5357 2.16145 15.6048C1.81013 15.6739 1.44613 15.6356 1.1169 15.4948C0.784412 15.3611 0.499975 15.1302 0.300736 14.8323C0.101497 14.5344 -0.00328318 14.1834 7.84236e-05 13.825V3.54512C7.84236e-05 2.70124 0.335307 1.89193 0.932018 1.29522C1.52873 0.69851 2.33804 0.363281 3.18192 0.363281L10.8183 0.363281C11.2362 0.363281 11.6499 0.445582 12.036 0.605484C12.422 0.765387 12.7728 0.999759 13.0682 1.29522C13.3637 1.59068 13.5981 1.94145 13.758 2.32748C13.9179 2.71352 14.0002 3.12728 14.0002 3.54512V13.825C14.0037 14.1831 13.8993 14.5339 13.7006 14.8318C13.5018 15.1296 13.2179 15.3607 12.8859 15.4948C12.6618 15.5886 12.4212 15.6366 12.1783 15.6361ZM3.18192 1.63602C2.67559 1.63602 2.19 1.83715 1.83198 2.19518C1.47395 2.55321 1.27281 3.0388 1.27281 3.54512V13.825C1.27258 13.9311 1.30379 14.0348 1.36248 14.1231C1.42117 14.2114 1.50472 14.2804 1.60257 14.3212C1.70043 14.3621 1.8082 14.373 1.91226 14.3527C2.01633 14.3323 2.11203 14.2816 2.18728 14.2068L6.55467 9.86617C6.6739 9.74764 6.83519 9.68111 7.00331 9.68111C7.17143 9.68111 7.33272 9.74764 7.45195 9.86617L11.8143 14.2056C11.8895 14.2803 11.9852 14.331 12.0893 14.3514C12.1933 14.3717 12.3011 14.3608 12.399 14.3199C12.4968 14.2791 12.5804 14.2101 12.639 14.1218C12.6977 14.0335 12.7289 13.9298 12.7287 13.8237V3.54512C12.7287 3.0388 12.5276 2.55321 12.1695 2.19518C11.8115 1.83715 11.3259 1.63602 10.8196 1.63602H3.18192Z" fill="#8C8C8C"/>
</svg>
