<svg width="52" height="52" viewBox="0 0 52 52" fill="none" xmlns="http://www.w3.org/2000/svg">
<rect x="10" y="10" width="32" height="32" fill="#7782FF"/>
<path fill-rule="evenodd" clip-rule="evenodd" d="M26 52C29.4144 52 32.7953 51.3275 35.9498 50.0209C39.1042 48.7142 41.9705 46.7991 44.3848 44.3848C46.7991 41.9705 48.7142 39.1042 50.0209 35.9498C51.3275 32.7953 52 29.4144 52 26C52 22.5856 51.3275 19.2047 50.0209 16.0502C48.7142 12.8958 46.7991 10.0295 44.3848 7.61522C41.9705 5.2009 39.1042 3.28575 35.9498 1.97913C32.7953 0.67251 29.4144 -5.08781e-08 26 0C19.1044 1.02753e-07 12.4912 2.73928 7.61522 7.61522C2.73928 12.4912 0 19.1044 0 26C0 32.8956 2.73928 39.5088 7.61522 44.3848C12.4912 49.2607 19.1044 52 26 52ZM25.3298 36.5156L39.7742 19.1822L35.3369 15.4844L22.9147 30.3882L16.4869 23.9576L12.402 28.0424L21.0687 36.7091L23.3047 38.9451L25.3298 36.5156Z" fill="#EDEEFF"/>
</svg>
