<svg width="52" height="52" viewBox="0 0 52 52" fill="none" xmlns="http://www.w3.org/2000/svg">
<path fill-rule="evenodd" clip-rule="evenodd" d="M26 52C29.4144 52 32.7953 51.3275 35.9498 50.0209C39.1042 48.7142 41.9705 46.7991 44.3848 44.3848C46.7991 41.9705 48.7142 39.1042 50.0209 35.9498C51.3275 32.7953 52 29.4144 52 26C52 22.5856 51.3275 19.2047 50.0209 16.0502C48.7142 12.8958 46.7991 10.0295 44.3848 7.61522C41.9705 5.2009 39.1042 3.28575 35.9498 1.97913C32.7953 0.67251 29.4144 -5.08781e-08 26 0C19.1044 1.02753e-07 12.4912 2.73928 7.61522 7.61522C2.73928 12.4912 0 19.1044 0 26C0 32.8956 2.73928 39.5088 7.61522 44.3848C12.4912 49.2607 19.1044 52 26 52Z" fill="#EDEEFF"/>
<path d="M23.0994 15V25.53H19.8594L26.3394 32.01L32.8194 25.53H29.5794V15H23.0994Z" fill="#7782FF"/>
<path d="M15 37.6795V34.4395H37.68V37.6795H15Z" fill="#7782FF"/>
</svg>
