<svg width="42" height="33" viewBox="0 0 42 33" fill="none" xmlns="http://www.w3.org/2000/svg">
<path d="M0.0585938 11.3125C0.0585938 7.99879 2.74489 5.3125 6.05859 5.3125H24.0586C27.3723 5.3125 30.0586 7.99879 30.0586 11.3125V26.3125C30.0586 29.6262 27.3723 32.3125 24.0586 32.3125H6.05859C2.74488 32.3125 0.0585938 29.6262 0.0585938 26.3125V11.3125Z" fill="#EFF2FA"/>
<rect x="6" y="23.0781" width="18" height="2.5" rx="1.25" fill="#C6D1EB"/>
<rect x="6" y="14.0781" width="12" height="2.5" rx="1.25" fill="#C6D1EB"/>
<path d="M26.054 3.96841L33.3749 11.2846L21.093 22.6305L14.0924 15.1572L26.054 3.96841Z" fill="#FF884D"/>
<mask id="mask0_6841_42621" style="mask-type:alpha" maskUnits="userSpaceOnUse" x="11" y="15" width="11" height="10">
<path d="M12.3599 24.7101C11.7818 24.8476 11.2732 24.3047 11.4482 23.7368L14.0913 15.1591L21.0918 22.6323L12.3599 24.7101Z" fill="#D9D9D9"/>
</mask>
<g mask="url(#mask0_6841_42621)">
<path d="M12.3599 24.7101C11.7818 24.8476 11.2732 24.3047 11.4482 23.7368L14.0913 15.1591L21.0918 22.6323L12.3599 24.7101Z" fill="#F8E4BA"/>
<rect x="12.1367" y="19.6172" width="6.4" height="3.84" transform="rotate(46.8705 12.1367 19.6172)" fill="#2C2523"/>
</g>
<path d="M26.2761 3.67016C28.3832 1.76173 31.6314 1.89514 33.5749 3.96994C35.5652 6.09465 35.4279 9.43818 33.2701 11.3925L33.1246 11.5242L26.0009 3.9194L26.2761 3.67016Z" fill="#B33F4E"/>
</svg>
