<svg width="25" height="24" viewBox="0 0 25 24" fill="none" xmlns="http://www.w3.org/2000/svg">
<path d="M5.75 5.25L6.6875 20.25C6.73203 21.1167 7.3625 21.75 8.1875 21.75H16.8125C17.6408 21.75 18.2595 21.1167 18.3125 20.25L19.25 5.25" stroke="white" stroke-width="1.44" stroke-linecap="round" stroke-linejoin="round"/>
<path d="M4.25 5.25H20.75H4.25Z" fill="white"/>
<path d="M4.25 5.25H20.75" stroke="white" stroke-width="1.44" stroke-miterlimit="10" stroke-linecap="round"/>
<path d="M9.5 5.25V3.375C9.49957 3.22715 9.52837 3.08066 9.58475 2.94397C9.64114 2.80729 9.72399 2.6831 9.82854 2.57854C9.93309 2.47399 10.0573 2.39114 10.194 2.33476C10.3307 2.27838 10.4771 2.24957 10.625 2.25H14.375C14.5229 2.24957 14.6693 2.27838 14.806 2.33476C14.9427 2.39114 15.0669 2.47399 15.1715 2.57854C15.276 2.6831 15.3589 2.80729 15.4152 2.94397C15.4716 3.08066 15.5004 3.22715 15.5 3.375V5.25M12.5 8.25001V18.75M9.125 8.25001L9.5 18.75M15.875 8.25001L15.5 18.75" stroke="white" stroke-width="1.44" stroke-linecap="round" stroke-linejoin="round"/>
</svg>
