<svg width="14" height="17" viewBox="0 0 14 17" fill="none" xmlns="http://www.w3.org/2000/svg">
<path d="M12.1783 16.2221C11.9428 16.2214 11.7099 16.1741 11.4928 16.0829C11.2758 15.9917 11.079 15.8584 10.9138 15.6907L7.00013 11.7999L3.08646 15.6932C2.83512 15.9482 2.51277 16.1216 2.16145 16.1907C1.81013 16.2599 1.44613 16.2215 1.1169 16.0808C0.784412 15.947 0.499975 15.7161 0.300736 15.4183C0.101497 15.1204 -0.00328318 14.7693 7.84236e-05 14.4109V4.13106C7.84236e-05 3.28718 0.335307 2.47787 0.932018 1.88116C1.52873 1.28445 2.33804 0.949219 3.18192 0.949219L10.8183 0.949219C11.2362 0.949219 11.6499 1.03152 12.036 1.19142C12.422 1.35132 12.7728 1.5857 13.0682 1.88116C13.3637 2.17662 13.5981 2.52738 13.758 2.91342C13.9179 3.29946 14.0002 3.71321 14.0002 4.13106V14.4109C14.0037 14.769 13.8993 15.1199 13.7006 15.4177C13.5018 15.7156 13.2179 15.9466 12.8859 16.0808C12.6618 16.1745 12.4212 16.2225 12.1783 16.2221Z" fill="#7782FF"/>
</svg>
