<svg width="38" height="28" viewBox="0 0 38 28" fill="none" xmlns="http://www.w3.org/2000/svg">
<g id="&#235;&#170;&#168;&#236;&#157;&#140;zip">
<g id="Mask group">
<mask id="mask0_6841_42680" style="mask-type:alpha" maskUnits="userSpaceOnUse" x="0" y="-1" width="38" height="29">
<path id="Rectangle 39590564" d="M11.6565 -0.00195312H2.44051C1.38012 -0.00195312 0.520508 0.857661 0.520508 1.91805V27.934H37.3845V4.55805C37.3845 3.49766 36.5249 2.63805 35.4645 2.63805H13.5765V1.91805C13.5765 0.85766 12.7169 -0.00195312 11.6565 -0.00195312Z" fill="#FFB85B"/>
</mask>
<g mask="url(#mask0_6841_42680)">
<path id="Rectangle 39590568" d="M11.6565 -0.00195312H3.44051C2.38012 -0.00195312 1.52051 0.857661 1.52051 1.91805V27.934H36.3845V4.55805C36.3845 3.49766 35.5249 2.63805 34.4645 2.63805H13.5765V1.91805C13.5765 0.85766 12.7169 -0.00195312 11.6565 -0.00195312Z" fill="#FDAD44"/>
<path id="Rectangle 39590565" d="M4.20947 7.48785C4.20947 6.69256 4.85418 6.04785 5.64947 6.04785H32.2575C33.0528 6.04785 33.6975 6.69256 33.6975 7.48785V23.0399C33.6975 23.8351 33.0528 24.4799 32.2575 24.4799H5.64947C4.85418 24.4799 4.20947 23.8351 4.20947 23.0399V7.48785Z" fill="white"/>
<path id="Rectangle 39590569" d="M19.2002 10.0152C19.2002 9.51818 19.6031 9.11523 20.1002 9.11523H30.3002C30.7973 9.11523 31.2002 9.51818 31.2002 10.0152C31.2002 10.5123 30.7973 10.9152 30.3002 10.9152H20.1002C19.6031 10.9152 19.2002 10.5123 19.2002 10.0152Z" fill="#C6D1EB"/>
<path id="Rectangle 39590566" d="M1.52051 27.93H37.3845V18.658C37.3845 15.4768 34.8057 12.8979 31.6245 12.8979H1.52051V27.93Z" fill="#FFE74A"/>
</g>
</g>
</g>
</svg>
