<svg width="39" height="29" viewBox="0 0 39 29" fill="none" xmlns="http://www.w3.org/2000/svg">
<g id="&#237;&#136;&#172;&#237;&#145;&#156;">
<path id="Rectangle 39590580" d="M0.560547 25.5965C0.560547 24.128 1.75102 22.9375 3.21955 22.9375H36.2956C37.7641 22.9375 38.9545 24.128 38.9545 25.5965C38.9545 27.065 37.7641 28.2555 36.2955 28.2555H3.21954C1.75102 28.2555 0.560547 27.065 0.560547 25.5965Z" fill="#7782FF"/>
<path id="Rectangle 39590581" d="M35.8049 14.4092L23.3701 0.232158L2.04731 18.7627L7.76466 25.3512L23 25.3512L25.6434 23.1745L35.8049 14.4092Z" fill="#EFF2FA"/>
<path id="Vector 1187" d="M4.84961 25.3281L25.9156 25.3281" stroke="#5861CA" stroke-width="1.6" stroke-linecap="round"/>
<path id="Vector 1188" d="M15.7232 18.8333L20.3013 19.2434C20.5938 19.2696 20.8425 19.0324 20.8303 18.7391L20.5291 11.5028" stroke="#5ED4CD" stroke-width="1.8" stroke-linecap="round"/>
</g>
</svg>
