<svg width="38" height="33" viewBox="0 0 38 33" fill="none" xmlns="http://www.w3.org/2000/svg">
<path d="M0.0585938 11.3906C0.0585938 8.07692 2.74489 5.39062 6.05859 5.39062H24.0586C27.3723 5.39062 30.0586 8.07692 30.0586 11.3906V26.3906C30.0586 29.7043 27.3723 32.3906 24.0586 32.3906H6.05859C2.74488 32.3906 0.0585938 29.7043 0.0585938 26.3906V11.3906Z" fill="#F8F8F8"/>
<rect x="6" y="23.1562" width="18" height="2.5" rx="1.25" fill="#E6E6E6"/>
<rect x="6" y="14.1562" width="12" height="2.5" rx="1.25" fill="#E6E6E6"/>
<path d="M26.054 4.04653L33.3749 11.3628L21.093 22.7086L14.0924 15.2353L26.054 4.04653Z" fill="#CACACA"/>
<mask id="mask0_6841_42575" style="mask-type:alpha" maskUnits="userSpaceOnUse" x="11" y="15" width="11" height="10">
<path d="M12.3599 24.7882C11.7818 24.9257 11.2732 24.3828 11.4482 23.8149L14.0913 15.2372L21.0918 22.7104L12.3599 24.7882Z" fill="#D9D9D9"/>
</mask>
<g mask="url(#mask0_6841_42575)">
<path d="M12.3599 24.7882C11.7818 24.9257 11.2732 24.3828 11.4482 23.8149L14.0913 15.2372L21.0918 22.7104L12.3599 24.7882Z" fill="#F8F8F8"/>
<rect x="12.1367" y="19.6953" width="6.4" height="3.84" transform="rotate(46.8705 12.1367 19.6953)" fill="#9E9E9E"/>
</g>
<path d="M26.2761 3.74828C28.3832 1.83986 31.6314 1.97327 33.5749 4.04807C35.5652 6.17278 35.4279 9.51631 33.2701 11.4706L33.1246 11.6023L26.0009 3.99753L26.2761 3.74828Z" fill="#AFAFAF"/>
</svg>
