<svg width="20" height="20" viewBox="0 0 20 20" fill="none" xmlns="http://www.w3.org/2000/svg">
<circle cx="10" cy="10" r="9.2" fill="white" stroke="#DFE3EB" stroke-width="1.6"/>
<path d="M7.04415 9.64833L8.89582 11.5L13.159 7.23684C13.3169 7.07895 13.5178 7 13.7618 7C14.0059 7 14.2068 7.07895 14.3647 7.23684C14.5226 7.39474 14.6016 7.59569 14.6016 7.83971C14.6016 8.08373 14.5226 8.28469 14.3647 8.44258L9.49869 13.3086C9.32644 13.4809 9.12549 13.567 8.89582 13.567C8.66616 13.567 8.4652 13.4809 8.29295 13.3086L5.8384 10.8541C5.68051 10.6962 5.60156 10.4952 5.60156 10.2512C5.60156 10.0072 5.68051 9.80622 5.8384 9.64833C5.9963 9.49043 6.19726 9.41148 6.44128 9.41148C6.68529 9.41148 6.88625 9.49043 7.04415 9.64833Z" fill="#7782FF"/>
</svg>
