<svg width="26" height="26" viewBox="0 0 26 26" fill="none" xmlns="http://www.w3.org/2000/svg">
<rect width="26" height="26" rx="13" fill="#FF587A"/>
<path fill-rule="evenodd" clip-rule="evenodd" d="M18.7363 8.98075C18.9052 9.14962 19 9.37862 19 9.61739C19 9.85617 18.9052 10.0852 18.7363 10.254L11.9869 17.0035C11.8977 17.0927 11.7918 17.1635 11.6752 17.2118C11.5587 17.2601 11.4338 17.2849 11.3076 17.2849C11.1814 17.2849 11.0565 17.2601 10.94 17.2118C10.8234 17.1635 10.7175 17.0927 10.6283 17.0035L7.27491 13.6507C7.1889 13.5676 7.1203 13.4683 7.07311 13.3584C7.02591 13.2485 7.00107 13.1304 7.00003 13.0108C6.99899 12.8912 7.02178 12.7727 7.06706 12.662C7.11233 12.5513 7.1792 12.4508 7.26375 12.3662C7.3483 12.2817 7.44884 12.2148 7.55951 12.1695C7.67017 12.1243 7.78875 12.1015 7.90832 12.1025C8.02788 12.1036 8.14604 12.1284 8.25591 12.1756C8.36577 12.2228 8.46513 12.2914 8.5482 12.3774L11.3073 15.1365L17.4625 8.98075C17.5461 8.89707 17.6454 8.83069 17.7547 8.7854C17.864 8.74011 17.9811 8.7168 18.0994 8.7168C18.2177 8.7168 18.3348 8.74011 18.4441 8.7854C18.5534 8.83069 18.6527 8.89707 18.7363 8.98075Z" fill="white"/>
</svg>
