<svg width="18" height="19" viewBox="0 0 18 19" fill="none" xmlns="http://www.w3.org/2000/svg">
<g clip-path="url(#clip0_7383_45339)">
<path d="M18 9.5C18 14.4705 13.9705 18.5 9 18.5C4.03 18.5 0 14.4705 0 9.5C0 4.53 4.03 0.5 9 0.5C13.9705 0.5 18 4.53 18 9.5Z" fill="#FFCC4D"/>
<path d="M14.2284 9.39853C14.1984 9.33103 13.4789 7.75003 11.9999 7.75003C10.5209 7.75003 9.80138 9.33103 9.77138 9.39853C9.75019 9.44894 9.746 9.50489 9.75946 9.55789C9.77292 9.6109 9.80328 9.65807 9.84596 9.69227C9.88863 9.72646 9.94129 9.74582 9.99595 9.7474C10.0506 9.74898 10.1043 9.7327 10.1489 9.70103C10.1549 9.69653 10.7799 9.25003 11.9999 9.25003C13.2129 9.25003 13.8369 9.69053 13.8509 9.70053C13.8951 9.73436 13.9493 9.75243 14.0049 9.75184C14.0606 9.75125 14.1144 9.73205 14.1578 9.69729C14.2013 9.66253 14.2318 9.61422 14.2446 9.56007C14.2574 9.50592 14.2517 9.44905 14.2284 9.39853ZM8.22838 9.39853C8.19838 9.33103 7.47888 7.75003 5.99988 7.75003C4.52088 7.75003 3.80138 9.33103 3.77138 9.39853C3.74854 9.44898 3.74313 9.5056 3.75601 9.55947C3.76889 9.61333 3.79933 9.66138 3.84253 9.69604C3.88572 9.7307 3.93923 9.75 3.9946 9.75091C4.04998 9.75181 4.10408 9.73426 4.14838 9.70103C4.15488 9.69653 4.77938 9.25003 5.99988 9.25003C7.21288 9.25003 7.83688 9.69053 7.85088 9.70053C7.89505 9.73436 7.94929 9.75243 8.00492 9.75184C8.06056 9.75125 8.11439 9.73205 8.15784 9.69729C8.20129 9.66253 8.23184 9.61422 8.24463 9.56007C8.25741 9.50592 8.25169 9.44905 8.22838 9.39853ZM15.4999 8.50003C15.3019 8.50003 15.1139 8.38103 15.0354 8.18553C14.1464 5.96303 11.9239 5.49503 11.9014 5.49003C11.8369 5.47728 11.7755 5.45193 11.7208 5.41542C11.666 5.37891 11.6191 5.33196 11.5825 5.27727C11.546 5.22257 11.5206 5.16121 11.5078 5.09669C11.495 5.03217 11.4951 4.96575 11.508 4.90126C11.521 4.83677 11.5465 4.77546 11.5831 4.72084C11.6198 4.66623 11.6669 4.61939 11.7217 4.583C11.7765 4.54661 11.8379 4.52139 11.9025 4.50878C11.967 4.49617 12.0334 4.49643 12.0979 4.50953C12.2109 4.53203 14.8759 5.09353 15.9639 7.81353C15.9944 7.88942 16.0058 7.97163 15.9972 8.05296C15.9885 8.13429 15.96 8.21226 15.9142 8.28002C15.8684 8.34778 15.8067 8.40328 15.7345 8.44164C15.6622 8.47999 15.5817 8.50004 15.4999 8.50003ZM2.49988 8.50003C2.41816 8.50001 2.33768 8.47996 2.2655 8.44163C2.19332 8.4033 2.13163 8.34786 2.08584 8.28016C2.04005 8.21247 2.01156 8.13458 2.00285 8.05331C1.99414 7.97205 2.00548 7.88989 2.03588 7.81403C3.12388 5.09403 5.78888 4.53253 5.90188 4.51003C6.03067 4.48667 6.16348 4.51474 6.2718 4.58821C6.38012 4.66167 6.45531 4.77469 6.48123 4.90298C6.50715 5.03127 6.48173 5.16462 6.41043 5.27438C6.33913 5.38414 6.22763 5.46156 6.09988 5.49003C6.00738 5.50903 3.84688 5.98003 2.96438 8.18553C2.92729 8.27839 2.8632 8.35799 2.78039 8.41406C2.69759 8.47012 2.59988 8.50007 2.49988 8.50003ZM8.99988 11.5C7.18838 11.5 5.98638 11.289 4.49988 11C4.16038 10.9345 3.49988 11 3.49988 12C3.49988 14 5.79738 16.5 8.99988 16.5C12.2019 16.5 14.4999 14 14.4999 12C14.4999 11 13.8394 10.934 13.4999 11C12.0134 11.289 10.8114 11.5 8.99988 11.5Z" fill="#664500"/>
<path d="M4.5 12C4.5 12 6 12.5 9 12.5C12 12.5 13.5 12 13.5 12C13.5 12 12.5 14 9 14C5.5 14 4.5 12 4.5 12Z" fill="white"/>
<path d="M5.42339 14.6146C5.26022 15.2573 4.84842 15.8088 4.27859 16.1479C3.70876 16.4869 3.02758 16.5857 2.38489 16.4226C1.74221 16.2594 1.19066 15.8476 0.851598 15.2778C0.512532 14.7079 0.413717 14.0268 0.576892 13.3841C0.916392 12.0456 3.74539 9.03007 4.23039 9.15307C4.71539 9.27607 5.76289 13.2766 5.42339 14.6146ZM12.5664 14.6146C12.7296 15.2572 13.1415 15.8086 13.7113 16.1476C14.2811 16.4866 14.9623 16.5853 15.6049 16.4221C16.2475 16.2589 16.799 15.8472 17.138 15.2775C17.4771 14.7078 17.576 14.0267 17.4129 13.3841C17.0729 12.0456 14.2439 9.03007 13.7589 9.15307C13.2749 9.27657 12.2269 13.2766 12.5664 14.6146Z" fill="#5DADEC"/>
</g>
<defs>
<clipPath id="clip0_7383_45339">
<rect width="18" height="18" fill="white" transform="translate(0 0.5)"/>
</clipPath>
</defs>
</svg>
