<svg width="23" height="22" viewBox="0 0 23 22" fill="none" xmlns="http://www.w3.org/2000/svg">
<path d="M21.8777 19.7917L16.8904 14.8044C18.0911 13.206 18.7393 11.2603 18.7371 9.26112C18.7371 4.15457 14.5825 0 9.47596 0C4.36941 0 0.214844 4.15457 0.214844 9.26112C0.214844 14.3677 4.36941 18.5222 9.47596 18.5222C11.4752 18.5245 13.4208 17.8763 15.0193 16.6755L20.0066 21.6628C20.259 21.8885 20.5883 22.009 20.9268 21.9995C21.2653 21.99 21.5873 21.8513 21.8267 21.6119C22.0662 21.3724 22.2049 21.0504 22.2143 20.7119C22.2238 20.3734 22.1033 20.0442 21.8777 19.7917ZM2.86088 9.26112C2.86088 7.95278 3.24885 6.67382 3.97572 5.58598C4.7026 4.49813 5.73573 3.65026 6.94448 3.14958C8.15323 2.6489 9.4833 2.5179 10.7665 2.77314C12.0497 3.02839 13.2284 3.65841 14.1535 4.58355C15.0787 5.50868 15.7087 6.68738 15.9639 7.97058C16.2192 9.25378 16.0882 10.5839 15.5875 11.7926C15.0868 13.0014 14.239 14.0345 13.1511 14.7614C12.0633 15.4882 10.7843 15.8762 9.47596 15.8762C7.72218 15.8741 6.04083 15.1765 4.80072 13.9364C3.5606 12.6963 2.86298 11.0149 2.86088 9.26112Z" fill="white"/>
</svg>
