<svg width="63" height="63" viewBox="0 0 63 63" fill="none" xmlns="http://www.w3.org/2000/svg">
<g id="trash-outline">
<path id="Vector" d="M13.7812 13.7812L16.2422 53.1562C16.3591 55.4314 18.0141 57.0938 20.1797 57.0938H42.8203C44.9946 57.0938 46.6188 55.4314 46.7578 53.1562L49.2188 13.7812" stroke="white" stroke-width="3" stroke-linecap="round" stroke-linejoin="round"/>
<g id="Vector_2">
<path d="M9.84375 13.7812H53.1562H9.84375Z" fill="white"/>
<path d="M9.84375 13.7812H53.1562" stroke="white" stroke-width="3" stroke-miterlimit="10" stroke-linecap="round"/>
</g>
<path id="Vector_3" d="M23.625 13.7813V8.85939C23.6239 8.47126 23.6995 8.08673 23.8475 7.72793C23.9955 7.36913 24.213 7.04313 24.4874 6.76868C24.7619 6.49423 25.0879 6.27675 25.4467 6.12874C25.8055 5.98073 26.19 5.90513 26.5781 5.90626H36.4219C36.81 5.90513 37.1945 5.98073 37.5533 6.12874C37.9121 6.27675 38.2381 6.49423 38.5126 6.76868C38.787 7.04313 39.0045 7.36913 39.1525 7.72793C39.3005 8.08673 39.3761 8.47126 39.375 8.85939V13.7813M31.5 21.6563V49.2188M22.6406 21.6563L23.625 49.2188M40.3594 21.6563L39.375 49.2188" stroke="white" stroke-width="3" stroke-linecap="round" stroke-linejoin="round"/>
</g>
</svg>
