
<svg width="11" height="11" viewBox="0 0 11 11" fill="none" xmlns="http://www.w3.org/2000/svg">
<path fill-rule="evenodd" clip-rule="evenodd" d="M5.06023 10.1205C5.14305 10.1205 5.22581 10.1184 5.30852 10.1143C5.39123 10.1103 5.47379 10.1042 5.55622 10.0961C5.63865 10.088 5.72082 10.0778 5.80274 10.0657C5.88466 10.0535 5.96622 10.0394 6.04744 10.0232C6.12866 10.0071 6.20944 9.98895 6.28978 9.96883C6.3701 9.9487 6.44988 9.92661 6.52913 9.90258C6.60838 9.87854 6.687 9.85257 6.76498 9.82465C6.84294 9.79676 6.92018 9.76698 6.9967 9.7353C7.07322 9.70358 7.14891 9.67003 7.22378 9.63464C7.29864 9.59922 7.37259 9.562 7.44563 9.52298C7.51866 9.48393 7.59069 9.44311 7.6617 9.40052C7.73274 9.35796 7.80268 9.31367 7.87153 9.26765C7.9404 9.22165 8.0081 9.17399 8.07461 9.12465C8.14113 9.07532 8.20639 9.02438 8.2704 8.97183C8.33441 8.91929 8.3971 8.86522 8.45847 8.80961C8.51984 8.754 8.57981 8.69692 8.63836 8.63836C8.69692 8.57981 8.754 8.51984 8.80961 8.45847C8.86522 8.3971 8.91929 8.33441 8.97183 8.2704C9.02438 8.20639 9.07532 8.14113 9.12465 8.07461C9.17399 8.0081 9.22165 7.9404 9.26765 7.87153C9.31367 7.80268 9.35796 7.73274 9.40052 7.6617C9.44311 7.59069 9.48393 7.51866 9.52298 7.44562C9.562 7.37259 9.59922 7.29864 9.63464 7.22378C9.67003 7.14891 9.70359 7.07322 9.7353 6.9967C9.76698 6.92018 9.79676 6.84294 9.82465 6.76498C9.85257 6.687 9.87854 6.60838 9.90258 6.52913C9.92662 6.44988 9.9487 6.3701 9.96883 6.28978C9.98895 6.20944 10.0071 6.12866 10.0232 6.04744C10.0394 5.96622 10.0535 5.88466 10.0657 5.80274C10.0778 5.72082 10.088 5.63864 10.0961 5.55622C10.1042 5.47379 10.1103 5.39123 10.1144 5.30852C10.1184 5.22581 10.1205 5.14305 10.1205 5.06023C10.1205 4.97741 10.1184 4.89465 10.1144 4.81194C10.1103 4.72924 10.1042 4.64667 10.0961 4.56424C10.088 4.48182 10.0778 4.39965 10.0657 4.31773C10.0535 4.23582 10.0394 4.15425 10.0232 4.07303C10.0071 3.99181 9.98895 3.91103 9.96883 3.8307C9.9487 3.75036 9.92662 3.67057 9.90258 3.59132C9.87854 3.51207 9.85257 3.43346 9.82465 3.35549C9.79676 3.27752 9.76698 3.20028 9.7353 3.12377C9.70359 3.04725 9.67003 2.97157 9.63464 2.8967C9.59922 2.82184 9.562 2.74789 9.52298 2.67486C9.48393 2.60182 9.44311 2.52979 9.40052 2.45875C9.35796 2.38772 9.31367 2.31777 9.26765 2.24892C9.22165 2.18006 9.17399 2.11237 9.12465 2.04586C9.07532 1.97934 9.02438 1.91407 8.97183 1.85005C8.91929 1.78604 8.86522 1.72335 8.80961 1.66199C8.754 1.60063 8.69692 1.54067 8.63836 1.48211C8.57981 1.42355 8.51984 1.36646 8.45847 1.31085C8.3971 1.25523 8.33441 1.20116 8.2704 1.14862C8.20639 1.09608 8.14113 1.04515 8.07461 0.995816C8.0081 0.946484 7.9404 0.898812 7.87153 0.852801C7.80268 0.806792 7.73274 0.762501 7.6617 0.719928C7.59069 0.677351 7.51866 0.636544 7.44563 0.597504C7.37259 0.558467 7.29864 0.521245 7.22378 0.485837C7.14891 0.45043 7.07322 0.41688 6.9967 0.385187C6.92018 0.353495 6.84294 0.3237 6.76498 0.295801C6.687 0.267901 6.60838 0.241932 6.52913 0.217892C6.44988 0.193852 6.3701 0.171771 6.28978 0.151649C6.20944 0.131527 6.12866 0.113387 6.04744 0.0972311C5.96622 0.0810746 5.88466 0.0669208 5.80274 0.0547695C5.72082 0.042618 5.63865 0.0324837 5.55622 0.0243664C5.47379 0.0162492 5.39123 0.0101588 5.30852 0.0060953C5.22581 0.0020318 5.14305 0 5.06023 0C4.97741 0 4.89465 0.0020318 4.81194 0.0060953C4.72924 0.0101588 4.64667 0.0162492 4.56425 0.0243664C4.48182 0.0324837 4.39965 0.042618 4.31773 0.0547695C4.23582 0.0669208 4.15425 0.0810746 4.07303 0.0972311C3.99181 0.113387 3.91103 0.131527 3.8307 0.151649C3.75036 0.171771 3.67057 0.193852 3.59132 0.217892C3.51207 0.241932 3.43346 0.267901 3.35549 0.295801C3.27752 0.3237 3.20028 0.353495 3.12377 0.385187C3.04725 0.41688 2.97157 0.45043 2.8967 0.485837C2.82184 0.521245 2.74789 0.558467 2.67486 0.597504C2.60182 0.636544 2.52979 0.677351 2.45875 0.719928C2.38772 0.762501 2.31777 0.806792 2.24892 0.852801C2.18006 0.898812 2.11237 0.946484 2.04586 0.995816C1.97934 1.04515 1.91407 1.09608 1.85005 1.14862C1.78604 1.20116 1.72335 1.25523 1.66199 1.31085C1.60063 1.36646 1.54067 1.42355 1.48211 1.48211C1.42355 1.54067 1.36646 1.60063 1.31085 1.66199C1.25523 1.72335 1.20116 1.78604 1.14862 1.85005C1.09608 1.91407 1.04515 1.97934 0.995816 2.04586C0.946484 2.11237 0.898812 2.18006 0.852801 2.24892C0.806792 2.31777 0.762501 2.38772 0.719928 2.45875C0.677352 2.52979 0.636544 2.60182 0.597504 2.67486C0.558467 2.74789 0.521245 2.82184 0.485837 2.8967C0.45043 2.97157 0.41688 3.04725 0.385187 3.12377C0.353495 3.20028 0.3237 3.27752 0.2958 3.35549C0.267901 3.43346 0.241932 3.51207 0.217892 3.59132C0.193852 3.67057 0.171771 3.75036 0.151649 3.8307C0.131526 3.91103 0.113387 3.99181 0.0972311 4.07303C0.0810746 4.15425 0.0669207 4.23582 0.0547694 4.31773C0.0426179 4.39965 0.0324836 4.48182 0.0243663 4.56424C0.0162491 4.64667 0.0101587 4.72924 0.0060952 4.81194C0.0020317 4.89465 0 4.97741 0 5.06023C0 5.22323 0.0078583 5.38586 0.0235747 5.54812C0.0392911 5.71036 0.0627925 5.87147 0.094079 6.03146C0.125365 6.19142 0.164291 6.34951 0.210856 6.50573C0.25742 6.66195 0.311408 6.81556 0.372817 6.96655C0.434226 7.11757 0.502772 7.26526 0.578456 7.40961C0.654138 7.554 0.736602 7.69439 0.825851 7.83079C0.915099 7.96719 1.01072 8.09897 1.1127 8.22612C1.21469 8.3533 1.32256 8.47526 1.43633 8.59198L1.02317 10.2447C0.943856 10.5619 1.2402 10.8448 1.55344 10.7508L4.01698 10.0118C4.36096 10.0842 4.70871 10.1205 5.06023 10.1205Z" fill="url(#paint0_linear_6971_21404)"/>
<path d="M4.00362 5.06193C4.35296 5.06193 4.63615 4.77874 4.63615 4.4294C4.63615 4.08007 4.35296 3.79688 4.00362 3.79688C3.65429 3.79688 3.37109 4.08007 3.37109 4.4294C3.37109 4.77874 3.65429 5.06193 4.00362 5.06193Z" fill="white"/>
<path d="M7.37862 5.06193C7.72796 5.06193 8.01115 4.77874 8.01115 4.4294C8.01115 4.08007 7.72796 3.79688 7.37862 3.79688C7.02929 3.79688 6.74609 4.08007 6.74609 4.4294C6.74609 4.77874 7.02929 5.06193 7.37862 5.06193Z" fill="white"/>
<path fill-rule="evenodd" clip-rule="evenodd" d="M3.84961 6.32031C3.86584 6.36622 3.88381 6.41143 3.90352 6.45595C3.92323 6.50047 3.94462 6.54416 3.96769 6.58704C3.99076 6.62991 4.01545 6.67183 4.04175 6.71281C4.06805 6.75378 4.09588 6.79368 4.12525 6.83251C4.15463 6.87134 4.18545 6.90899 4.21771 6.94545C4.24998 6.9819 4.28361 7.01707 4.31858 7.05094C4.35356 7.08481 4.38978 7.11729 4.42726 7.14837C4.46473 7.17945 4.50335 7.20905 4.5431 7.23716C4.58285 7.26527 4.62363 7.29181 4.66542 7.31678C4.70722 7.34175 4.74991 7.36508 4.79351 7.38676C4.8371 7.40845 4.88146 7.42842 4.92659 7.4467C4.97172 7.46497 5.01748 7.48147 5.06388 7.49622C5.11028 7.51097 5.15718 7.52391 5.20458 7.53505C5.25197 7.54619 5.29973 7.55549 5.34784 7.56295C5.39595 7.57041 5.44428 7.57602 5.49282 7.57976C5.54137 7.5835 5.58999 7.58537 5.63867 7.58537C5.68736 7.58537 5.73597 7.5835 5.78452 7.57976C5.83306 7.57602 5.88139 7.57041 5.9295 7.56295C5.97761 7.55549 6.02537 7.54619 6.07277 7.53505C6.12016 7.52391 6.16706 7.51097 6.21346 7.49622C6.25986 7.48147 6.30562 7.46497 6.35075 7.4467C6.39588 7.42842 6.44025 7.40845 6.48384 7.38676C6.52743 7.36508 6.57012 7.34175 6.61192 7.31678C6.65372 7.29181 6.69449 7.26527 6.73424 7.23716C6.774 7.20905 6.81261 7.17945 6.85008 7.14837C6.88756 7.11729 6.92379 7.08481 6.95876 7.05094C6.99374 7.01707 7.02736 6.9819 7.05963 6.94545C7.0919 6.90899 7.12272 6.87134 7.15209 6.83251C7.18146 6.79368 7.2093 6.75378 7.23559 6.71281C7.26189 6.67183 7.28658 6.62991 7.30966 6.58704C7.33273 6.54416 7.35412 6.50047 7.37383 6.45595C7.39354 6.41143 7.41151 6.36622 7.42774 6.32031H3.84961Z" fill="white"/>
<defs>
<linearGradient id="paint0_linear_6971_21404" x1="5.06023" y1="0" x2="5.06023" y2="10.7691" gradientUnits="userSpaceOnUse">
<stop stop-color="#FFCC02"/>
<stop offset="1" stop-color="#FBAB00"/>
</linearGradient>
</defs>
</svg>
